# xmcd
#
# Track frame offsets: 
#        187
#        45642
#        97562
#        136967
#        186982
#        233185
#        289482
#
# Disc length: 4426 seconds
#
# Revision: 1
# Processed by: cddbd v1.5.2PL0 Copyright (c) Steve Scherf et al.
# Submitted via: ExactAudioCopy v0.95b3
#
DISCID=5d114807
DTITLE=Chick Corea Akoustic Band - Live From The Blue Note Tokyo {Japa
DTITLE=nese Import}
DYEAR=1996
DGENRE=Jazz
TTITLE0=Humpty Dumpty
TTITLE1=New Waltse
TTITLE2=With A Song In My Heart
TTITLE3=Chasin' The Train
TTITLE4=Summer Night
TTITLE5=Tumba
TTITLE6=Autumn Leaves
EXTD=YEAR: 1992
EXTT0=
EXTT1=
EXTT2=
EXTT3=
EXTT4=
EXTT5=
EXTT6=
PLAYORDER=
